<?xml version="1.0" encoding="UTF-8"?>
<svg id="a" data-name="레이어 1" xmlns="http://www.w3.org/2000/svg" width="512" height="512" viewBox="0 0 512 512">
  <rect width="512" height="512" rx="83.902" ry="83.902" fill="#fff" stroke-width="0"/>
  <g>
    <path d="M194.674,186.587c0-15.621,10.354-28.743,28.386-28.743,18.478,0,28.297,13.122,28.208,28.743v6.784c.089,15.532-9.998,28.475-28.208,28.386-18.478.089-28.386-13.033-28.386-28.386v-6.784ZM291.793,162.308h16.424l-88.906,129.254h-16.424l88.907-129.254ZM223.06,205.869c7.677,0,9.998-6.338,9.998-12.497v-6.784c0-6.248-2.053-12.765-9.998-12.675-7.676-.089-10.086,6.516-10.176,12.675v6.784c.089,6.159,2.588,12.497,10.176,12.497ZM289.293,231.934c18.479-.089,28.297,13.033,28.387,28.565v6.784c-.09,15.442-10.176,28.653-28.387,28.742-18.388-.089-28.296-13.3-28.385-28.742v-6.784c.089-15.443,10.265-28.655,28.385-28.565ZM289.293,279.779c7.678.09,10.088-6.248,9.998-12.496v-6.784c.09-6.16-2.053-12.676-9.998-12.676-7.587,0-10.176,6.517-10.176,12.676v6.784c0,6.069,2.41,12.586,10.176,12.496Z" fill="#000" stroke-width="0"/>
    <rect x="53.009" y="333.083" width="405.983" height="26.496" fill="#000" stroke-width="0"/>
  </g>
</svg>